# xmcd CD database file
#
# Track frame offsets:
#	150
#	16145
#	34845
#
# Disc length: 895 seconds
#
# Revision: 0
# Processed by: cddbd v1.5.1PL0 Copyright (c) Steve Scherf et al.
# Submitted via: CDex 1.51
#
DISCID=18037d03
DTITLE=pointer - ジェットスクーター
DYEAR=1996
DGENRE=Rock
TTITLE0=ジェットスクーター
TTITLE1=I'm waiting
TTITLE2=the edge of the world Ver.2.0.1
EXTD=YEAR: 1996.12/01
EXTT0=
EXTT1=
EXTT2=
PLAYORDER=
